<svg xmlns="http://www.w3.org/2000/svg" width="560" height="1034" preserveAspectRatio="none" viewBox="0 0 560 1034"><path d="m510 1034 4-1h2l1-1-1-4c-1-1-1-3 1-4 2 0 2-2 3-3l1-1v-5l1-2 1-1-1-1v-2h1l1 2 1-1v-1h1v-3l1-1 1 1h1v-12l-1-1 1-4v-7l-1-3v-2l-1-1-2-1-1-1c0-1 1-2 2-1h1v-1l-1-1 1-1 1 1v1h1l1-2-1-1-1-2-1-3 1-2-1-1-2-3v-3l-1-3-1-1v-3l2-1v-3l-1-1v-1l1-1 1-1v-1l-1-2h1v-2l-1-3v-5l1-2 1-1 1-4v-3l2-4v-1h-1v-2l1-1v-3c2 0 1 0 1-1v-1l-1-4-1-1v-1l1-1v-6h1l2-1h2c0-2 2-3 4-3l-1-1v-1h1l2-1v-2c1-1 2-2 1-3v-2l-1-2 1-1h1l-1-1 1-1v-1l1-1-2-3-1-1v-3h1v-2l2-2v-3h1v-2l-1-2 1-1v-1l-2-1-1-1v-1l1-1h3-1l-1-1h2v-5l2-2h-1v-1h1l1-2-1-3v-10c1 0 1 0 0 0l-1-1v-3l-1-1v-1l-1-1h1v-2l1 1h1v1l1-1v-1l1-1h1v-2l-1-1 1-1v-2l2-2h2l-1-1 1-2v-2h1v-1l2 1h1l1-1-1-1v-2h1l-1-1 1-1v-2l-1-1 1-1v-1l-1-2-1-1v-5l-1-2v-1h1v-1l-1-1v-5l-1-1-2-3-1-1v-1l-2-1-1-1 1-2 1-1v-1h-1l-2-2-1-1-2-1h-1v-3h-1v-2l1-3-1-2v-3l-1-2 1-4h1l-1-1 1-1v-2h-1l-1-2h-1v-3l-1-2v-1l1-1-1-1-1-1-1-1-2-3v-6l1-1-1-1v-3h-1v-1l-1-1v-1h-1l1-1-1-1v-1l1-1-1-2v-4l1-1h1v-3h1v-3l-1-2 1-1v-5l-1-1h3v2l2 2 3 1v-2l-1-3-2-3-2-1-1-2-1-1-2-2-1-1h-1l-1-1-2-2-1-2 1-1v-1l1-1v-4l-1-2-1-3 2-2h1v-1l2-2v-2h2l1-2v-4l1-1 2-1v-1l1-2c-2 0-2-1-2-2v-5l-1-2v-1l-2-4h-1v-6l1-2 1-2-1-1v-4l-1-3 1-1-1-2v-5l-1-1v-2l-1-1 1-1v-1h1l-1-2-1-2v-3h1v-5l1-2-1-1 1-1v-6l-1-3v-1l-1-1-1-1 2-2v-7l1-1v-1l1-1 1-3v-6l-1-1v-1l-1-1 1-1 1-1v-7h1l1-1c1 0 1 0 0 0v-1h2v-2l-1-2-1-1v-1h-1v-4l-1-1v-2l1-1c1 1 1 0 0 0l1-1v-1l1-1h1v-2l1-1 1-1h1l2 1 1 1v-2h1v-1h-1v-1h2l-1-1v-1l1-1-1-1h3v-1l-1-1v-1h2l-1-1h-1v-2l-1-1-1-2c-1 0-1 0 0 0v-1l-1-2v-1l-1-2v-1l2-1h1l-1-1-1-1-1-1v-4l-1-4 1-3-1-2v-3l1-3v-1l-2-1v-2l-1-1-1-1v-2l1-1 1 1v-1l-2-1h1l1-1v-1h-1l-1-1h1v-1l2-1v-1l-3-1-1-1-2-1-1-1v-1l-1-3v-1l2-1v-2l-1-2v-4h1v-1l-1-1v-1l-2-2h-1c-2 0-2 0-1-2v-4l1-1v-1h1v-2l1-2v-1l-1-1 1-2 1-1-1-1c-2-1-2-2-2-3v-5l2-2 1-2-1-2h1v-2l-2-3-1-2v-8l1-1-1-3 1-1v-1l-2-1-1-3-1-1-1-1v-1l-1-2 1-1-1-1h2l-1-1v-1h1l-1-2-2-1-1-1 1-2 2-3v-2l1-1-1-1-1-1 1-1c0-1 0-1 0 0l2-1h1l-1-1v-2l1-1h1v-2l1-1-1-1v-1h1l1-1h-1l-1-1 2-1 1-1v-1l1 1h1v-2l-1-1h-1l1-1h1v-2h-1l-1-1-1-1-1-1v-1l-2-3-1-1-1-1 1-2v-1l1-1v-6l2-1v-1c-1 0-1 0 0 0l-1-3-2-1-1-1v-1l1-1-1-1v-3l1 1 1 1v-3l-1-2v-3l1-2v-3l1-1v-1l-1-2-1-1v-1l1-1-1-1v-4l-2-2v-2h-1v-1l1-1v-1l1 1v1-7l-1-1 1-1h-1v-3l-1-1v-6l-1-1 1-1v-2l1-1v-2h1v-1l1-2 1-1 1-1h1v-2l1-2 1-2 1-1 1-3 1-1c1-1 2-1 2-3v-2l1-2v-8l1-2-1-2h1l1-1v-4h1v2l1 1v-2l-1-1v-7l1-1v-2h1v-4h1l-1-1 1-2v-6l-1-3v-1l1-1-2-2v-9h-1l-1-1-1-3v-1l-1-4 1-1-1-1v-1h-1v-2h1v1h1v-2l-2-3h-1v-2h-1l-1-1-1-2v-1l-1-1-1-1v-1h-1v-2l-1-1-1-1v-1l-1-1v-1l-1-1-1-1v-5l-1-1-1-1 1-1v-1l-1-1v-3l-1-1v-1l-1-1v-1l-2-3-2-1v-1l-1-2v-1h-1l-2-3v-5l1-3h-1v-1h3l-1-1 5-2-1-1v-1l-2-1 3-1 3-1v-2l1-1h-1l-1-1v-1l1-1 1-2-1-1 1-2v-1l1-1h-1v-2h1l1-1h-1l1-4-1-1 3-3-1-1 1-3-1-1-1-1-1-1v-2l-1-1v-1h1v-3l-1-2-1-1-1-1h-1l-1-2 1-1 1-3-1-2v-1l-1-1 2-2v-2l-1-2v-1l1-3V6l-1-2V3h-1V1l-2-1H0v1034h510ZM528 15c-1 0-1 0 0 0Zm3 266 1 1h-1v-1Zm0 53v-1l1 1h-1Zm17 155v-1l1 1h-1Zm-1 5 1-1v1h-1Zm-9 9 1-1 1 1h-2Zm2 18v-1 2-1Zm-3 1h1v1l-1-1Zm-3 366c1 0 1 0 0 0Z"/></svg>