<svg xmlns="http://www.w3.org/2000/svg" width="1034" height="801" viewBox="0 0 1034 801" preserveAspectRatio="none"><path d="m0 755 1 4v2l1 1 4-1c1-1 3-1 4 1 0 2 2 2 3 3l1 1h5l2 1 1 1 1-1h2v1l-2 1 1 1h1v1h3l1 1-1 1v1h12l1-1 4 1h7l3-1h2l1-1 1-2 1-1c1 0 2 1 1 2v1h1l1-1 1 1-1 1h-1v1l2 1 1-1 2-1 3-1 2 1 1-1 3-2h3l3-1 1-1h3l1 2h3l1-1h1l1 1 1 1h1l2-1v1h2l3-1h5l2 1 1 1 4 1h3l4 2h1v-1h2l1 1h3c0 2 0 1 1 1h1l4-1 1-1h1l1 1h6v1l1 2v2c2 0 3 2 3 4l1-1h1v1l1 2h2c1 1 2 2 3 1h2l2-1 1 1v1l1-1 1 1h1l1 1 3-2 1-1h3v1h2l2 2h3v1h2l2-1 1 1h1l1-2 1-1h1l1 1v3-1l1-1v2h5l2 2v-1h1v1l2 1 3-1h10c0 1 0 1 0 0l1-1h3l1-1h1l1-1v1h2l-1 1v1h-1l1 1h1l1 1v1h2l1-1 1 1h2l2 2v2l1-1 2 1h2v1h1l-1 2v1l1 1 1-1h2v1l1-1 1 1h2l1-1 1 1h1l2-1 1-1h5l2-1h1v1h1l1-1h5l1-1 3-2 1-1h1l1-2 1-1 2 1 1 1h1v-1l2-2 1-1 1-2v-1h3v-1h2l3 1 2-1h3l2-1 4 1v1l1-1 1 1h2v-1l2-1v-1h3l2-1h1l1 1 1-1 1-1 1-1 3-2h6l1 1 1-1h3v-1h1l1-1h1v-1l1 1 1-1h1l1 1 2-1h4l1 1v1h3v1h3l2-1 1 1h5l1-1v3h-2l-2 2-1 3h2l3-1 3-2 1-2 2-1 1-1 2-2 1-1v-1l1-1 2-2 2-1 1 1h1l1 1h4l2-1 3-1 2 2v1h1l2 2h2v2l2 1h4l1 1 1 2h1l2 1c0-2 1-2 2-2h5l2-1h1l4-2v-1h6l2 1 2 1 1-1h4l3-1 1 1 2-1h5l1-1h2l1-1 1 1h1v1l2-1 2-1h3v1h5l2 1 1-1 1 1h6l3-1h1l1-1 1-1 2 2h7l1 1h1l1 1 3 1h6l1-1h1l1-1 1 1 1 1h7v1l1 1c0 1 0 1 0 0h1v2h2l2-1 1-1h1v-1h4l1-1h2l1 1c-1 1 0 1 0 0l1 1h1l1 1v1h2l1 1 1 1v1l-1 2-1 1h2v1h1v-1h1v2l1-1h1l1 1 1-1v3h1l1-1h1v2l1-1v-1h2l1-1 2-1c0-1 0-1 0 0h1l2-1h1l2-1h1l1 2v1l1-1 1-1 1-1h4l4-1 3 1 2-1h3l3 1h1l1-2h2l1-1 1-1h2l1 1-1 1h1l1-2v1l1 1h1v-1l1-1v1h1l1 2h1l1-3 1-1 1-2 1-1h1l3-1h1l1 2h2l2-1h4v1h1l1-1h1l2-2v-1c0-2 0-2 2-1h4l1 1h1v1h2l2 1h1l1-1 2 1 1 1 1-1c1-2 2-2 3-2h5l2 2 2 1 2-1v1h2l3-2 2-1h8l1 1 3-1 1 1h1l1-2 3-1 1-1 1-1h1l2-1 1 1 1-1v2l1-1h1v1l2-1 1-2 1-1 2 1 3 2h2l1 1 1-1 1-1 1 1c1 0 1 0 0 0l1 2v1l1-1h2l1 1v1h2l1 1 1-1h1v1l1 1v-1l1-1 1 2 1 1h1l-1 1v1h2l1-1v-1l1 1v1h2v-1l1-1 1-1 1-1h1l3-2 1-1 1-1 2 1h1l1 1h6l1 2h1c0-1 0-1 0 0l3-1 1-2 1-1h1l1 1 1-1h3l-1 1-1 1h3l2-1h3l2 1h3l1 1h1l2-1 1-1h1l1 1 1-1h4l2-2h2v-1h1l1 1h1l-1 1h-1 7l1-1 1 1v-1h3l1-1h6l1-1 1 1h2l1 1h2v1h1l2 1 1 1 1 1v1h2l2 1 2 1 1 1 3 1 1 1c1 1 1 2 3 2h2l2 1h8l2 1 2-1v1l1 1h4v1h-2l-1 1h2l1-1h7l1 1h2v1h4v1l1-1 2 1h6l3-1h1l1 1 2-2h9v-1l1-1 3-1h1l4-1 1 1 1-1h1v-1h2v1h-1v1h2l3-2v-1h2v-1l1-1 2-1h1l1-1 1-1h1v-1h2l1-1 1-1h1l1-1h1l1-1 1-1h5l1-1 1-1 1 1h1l1-1h3l1-1h1l1-1h1l3-2 1-2h1l2-1h1v-1l3-2h5l3 1v-1h1v3l1-1 2 5 1-1h1l1-2 1 3 1 3h2l1 1v-1l1-1h1l1 1 2 1 1-1 2 1h1l1 1v-1h2v1l1 1v-1l4 1 1-1 3 3 1-1 3 1 1-1 1-1 1-1h2l1-1h1v1h3l2-1 1-1 1-1v-1l2-1 1 1 3 1 2-1h1l1-1 2 2h2l2-1h1l3 1h2l2-1h1v-1h2l1-2V0H0v755Zm1019 18c0-1 0-1 0 0Zm-266 3-1 1v-1h1Zm-53 0h1l-1 1v-1Zm-155 17h1l-1 1v-1Zm-5-1 1 1h-1v-1Zm-9-9 1 1-1 1v-2Zm-18 2h1-2 1Zm-1-3v1h-1l1-1Zm-366-3c0 1 0 1 0 0Z"/></svg>